<?xml version="1.0" encoding="UTF-8" standalone="no"?>
<!-- Created with Inkscape (http://www.inkscape.org/) -->

<svg
   xmlns:dc="http://purl.org/dc/elements/1.1/"
   xmlns:cc="http://creativecommons.org/ns#"
   xmlns:rdf="http://www.w3.org/1999/02/22-rdf-syntax-ns#"
   xmlns:svg="http://www.w3.org/2000/svg"
   xmlns="http://www.w3.org/2000/svg"
   xmlns:sodipodi="http://sodipodi.sourceforge.net/DTD/sodipodi-0.dtd"
   xmlns:inkscape="http://www.inkscape.org/namespaces/inkscape"
   width="75"
   height="75"
   id="svg2"
   version="1.1"
   inkscape:version="0.48.4 r9939"
   sodipodi:docname="New document 1">
  <defs
     id="defs4" />
  <sodipodi:namedview
     id="base"
     pagecolor="#ffffff"
     bordercolor="#666666"
     borderopacity="1.0"
     inkscape:pageopacity="0.0"
     inkscape:pageshadow="2"
     inkscape:zoom="0.35"
     inkscape:cx="897.28573"
     inkscape:cy="558.57146"
     inkscape:document-units="px"
     inkscape:current-layer="layer1"
     showgrid="false"
     fit-margin-top="0"
     fit-margin-left="0"
     fit-margin-right="0"
     fit-margin-bottom="0"
     inkscape:window-width="1366"
     inkscape:window-height="706"
     inkscape:window-x="-8"
     inkscape:window-y="-8"
     inkscape:window-maximized="1" />
  <metadata
     id="metadata7">
    <rdf:RDF>
      <cc:Work
         rdf:about="">
        <dc:format>image/svg+xml</dc:format>
        <dc:type
           rdf:resource="http://purl.org/dc/dcmitype/StillImage" />
        <dc:title></dc:title>
      </cc:Work>
    </rdf:RDF>
  </metadata>
  <g
     inkscape:label="Layer 1"
     inkscape:groupmode="layer"
     id="layer1"
     transform="translate(522.28573,-133.79072)">
    <g
       transform="translate(325.42855,-144.28576)"
       id="layer1-9"
       inkscape:label="Layer 1">
      <path
         inkscape:connector-curvature="0"
         id="rect2998"
         d="m -847.71428,278.07648 957.14288,0 0,957.14292 -957.14288,0 z"
         style="fill:#d40000;fill-opacity:1;fill-rule:nonzero;stroke:none" />
      <g
         id="g2993"
         inkscape:label="LanguageArts"
         transform="matrix(4.6840031,-1.8406387e-8,-1.8406387e-8,-4.6840031,-856.93159,4387.8726)">
        <path
           inkscape:connector-curvature="0"
           id="path2997-4"
           d="m 87.870966,810.48411 c -0.325438,10e-4 -0.65278,-0.0104 -0.97406,-0.0334 l 0,0.007 c -6.609229,-0.472 -12.208788,-6.02835 -12.209108,-13.87035 l 0,-37.30783 c 0.003,-1.347 -1.004137,-2.50854 -2.461837,-2.50854 l -11.64869,0 c -25.21987,-0.03 -22.981573,32.19938 -1.514463,32.23738 l 12.876272,0 0,9.37366 -0.0067,0 0,-0.007 -13.349959,0 c -2.13718,0 -4.140499,-0.20056 -6.004479,-0.57376 -0.228145,-0.0458 -0.456424,-0.0891 -0.680508,-0.14011 -0.0047,-10e-4 -0.0087,-0.006 -0.01334,-0.007 -0.223902,-0.0511 -0.447312,-0.0973 -0.667164,-0.15344 -0.0047,-10e-4 -0.0087,-0.005 -0.01334,-0.007 -0.219677,-0.0563 -0.438183,-0.11222 -0.653821,-0.17346 -0.0047,-10e-4 -0.0087,-0.005 -0.01334,-0.007 -0.21547,-0.0613 -0.429037,-0.12727 -0.640478,-0.19348 -0.0047,-10e-4 -0.0087,-0.005 -0.01334,-0.007 -0.211266,-0.0663 -0.419885,-0.12908 -0.627135,-0.20015 -0.0047,-0.001 -0.0087,-0.005 -0.01334,-0.007 -0.207141,-0.0712 -0.417331,-0.14431 -0.620463,-0.22016 -0.0027,-10e-4 -0.004,-0.006 -0.0067,-0.007 -0.204925,-0.0766 -0.406268,-0.15224 -0.607119,-0.23351 -0.0045,-0.002 -0.0088,-0.005 -0.01334,-0.007 -0.198825,-0.0806 -0.398936,-0.16177 -0.593776,-0.24685 -0.0027,-10e-4 -0.004,-0.006 -0.0067,-0.007 -0.19656,-0.0859 -0.387922,-0.1698 -0.580433,-0.2602 -0.0045,-0.002 -0.0089,-0.005 -0.01334,-0.007 -0.190574,-0.0896 -0.380482,-0.1796 -0.56709,-0.27354 -0.0044,-0.002 -0.0089,-0.004 -0.01334,-0.007 -0.186495,-0.094 -0.371208,-0.19532 -0.553747,-0.29355 -0.0044,-0.002 -0.009,-0.004 -0.01334,-0.007 -0.182387,-0.0983 -0.361962,-0.19782 -0.540403,-0.30022 -0.0043,-0.002 -0.009,-0.004 -0.01334,-0.007 -0.17832,-0.10248 -0.352677,-0.20707 -0.52706,-0.31356 -0.0042,-0.003 -0.0091,-0.004 -0.01334,-0.007 -0.174304,-0.1066 -0.350013,-0.2164 -0.520389,-0.32691 -0.0041,-0.003 -0.0092,-0.004 -0.01334,-0.007 -0.170235,-0.11059 -0.334058,-0.22586 -0.500373,-0.34026 -0.0041,-0.003 -0.0093,-0.004 -0.01334,-0.007 -0.166216,-0.11449 -0.331393,-0.22871 -0.493701,-0.34693 -0.004,-0.003 -0.0094,-0.004 -0.01334,-0.007 -0.494605,-0.36072 -0.969325,-0.74056 -1.427732,-1.13418 -0.0037,-0.003 -0.0097,-0.004 -0.01334,-0.007 -0.304209,-0.26154 -0.598996,-0.53218 -0.887328,-0.80727 -0.0034,-0.003 -0.0099,-0.003 -0.01334,-0.007 -0.28819,-0.27527 -0.568254,-0.55925 -0.840628,-0.8473 -0.0022,-0.002 -0.0045,-0.004 -0.0067,-0.007 -0.135582,-0.1435 -0.268624,-0.2938 -0.400298,-0.44032 -0.0021,-0.002 -0.0046,-0.004 -0.0067,-0.007 -0.398964,-0.44423 -0.779015,-0.90285 -1.140851,-1.37435 -0.0019,-0.002 -0.0048,-0.004 -0.0067,-0.007 -0.604011,-0.78773 -1.154122,-1.6081 -1.654568,-2.46183 -0.0015,-0.003 -0.0051,-0.004 -0.0067,-0.007 -1.001901,-1.71063 -1.795417,-3.5444 -2.381777,-5.44406 -0.11745,-0.38052 -0.226129,-0.76186 -0.32691,-1.14753 -0.150621,-0.57639 -0.280237,-1.16232 -0.393627,-1.74797 -4.27e-4,-0.002 4.27e-4,-0.005 0,-0.007 -0.03726,-0.19363 -0.07355,-0.38598 -0.106746,-0.58043 -4.27e-4,-0.002 4.27e-4,-0.005 0,-0.007 -0.06707,-0.39138 -0.129546,-0.78681 -0.180135,-1.18088 -2.13e-4,-0.002 2.14e-4,-0.004 0,-0.007 -0.02494,-0.19582 -0.04584,-0.39076 -0.06672,-0.58711 -2.14e-4,-0.002 2.13e-4,-0.004 0,-0.007 -0.02084,-0.19635 -0.04327,-0.39032 -0.06004,-0.5871 -1.9e-4,-0.002 1.9e-4,-0.004 0,-0.007 -0.01674,-0.1968 -0.03402,-0.39663 -0.0467,-0.59377 -1.43e-4,-0.002 1.44e-4,-0.004 0,-0.007 -6.4e-4,-0.009 6.41e-4,-0.0177 0,-0.0267 -0.03691,-0.58469 -0.05877,-1.16872 -0.06004,-1.75464 -5e-6,-0.002 4e-6,-0.004 0,-0.007 -4.27e-4,-0.19978 0.0029,-0.40074 0.0067,-0.60045 4e-5,-0.002 -4.3e-5,-0.004 0,-0.007 0.0037,-0.19749 0.01221,-0.39646 0.02,-0.59378 8.7e-5,-0.002 -8.8e-5,-0.004 0,-0.007 0.0079,-0.19729 0.01477,-0.39008 0.02669,-0.5871 1.35e-4,-0.002 -1.36e-4,-0.004 0,-0.007 0.01198,-0.19706 0.03065,-0.39709 0.0467,-0.59378 1.79e-4,-0.002 -1.79e-4,-0.004 0,-0.007 0.0161,-0.19667 0.03318,-0.3909 0.05337,-0.58711 2.14e-4,-0.002 -2.13e-4,-0.004 0,-0.007 0.02024,-0.19621 0.04238,-0.39144 0.06672,-0.5871 2.13e-4,-0.002 -2.14e-4,-0.004 0,-0.007 0.02439,-0.19567 0.05156,-0.39209 0.08006,-0.58711 2.14e-4,-0.002 -2.13e-4,-0.005 0,-0.007 0.02855,-0.19502 0.06074,-0.39283 0.0934,-0.5871 4.27e-4,-0.002 -4.27e-4,-0.005 0,-0.007 0.03271,-0.19426 0.06991,-0.38703 0.106747,-0.58044 0.0077,-0.0406 0.01877,-0.0796 0.02669,-0.12009 0.06892,-0.35215 0.137436,-0.69863 0.220164,-1.04744 0.04587,-0.19342 0.09665,-0.38819 0.146777,-0.58044 0.04948,-0.1903 0.0998,-0.38469 0.153447,-0.57376 0.09084,-0.31899 0.19079,-0.63894 0.293553,-0.95404 0.01953,-0.06 0.04008,-0.12025 0.06005,-0.18014 0.01652,-0.0494 0.03656,-0.0975 0.05337,-0.14677 0.11099,-0.32559 0.223035,-0.65333 0.346925,-0.97406 0.0011,-0.003 0.0056,-0.004 0.0067,-0.007 0.213503,-0.55217 0.44194,-1.09882 0.693851,-1.63455 0.0013,-0.003 0.0054,-0.004 0.0067,-0.007 1.01337,-2.15313 2.333848,-4.16243 3.9763,-5.94443 0.409543,-0.44444 0.838786,-0.87836 1.287627,-1.2943 0.0011,-10e-4 0.0055,10e-4 0.0067,0 0.448851,-0.41579 0.912548,-0.81629 1.401045,-1.2009 0.0013,-10e-4 0.0053,0.001 0.0067,0 0.651878,-0.513 1.338338,-1.00252 2.061538,-1.45442 0.0015,-10e-4 0.0051,10e-4 0.0067,0 0.360849,-0.22535 0.728733,-0.44486 1.107493,-0.65382 0.0017,-8.5e-4 0.005,8.6e-4 0.0067,0 0.188644,-0.10387 0.380659,-0.20724 0.573761,-0.30689 0.0017,-8.6e-4 0.0049,8.5e-4 0.0067,0 0.193123,-0.0996 0.382839,-0.19826 0.580433,-0.29356 0.0017,-8.5e-4 0.0049,8.6e-4 0.0067,0 0.197656,-0.0953 0.398309,-0.19602 0.600448,-0.28688 0.0019,-8.5e-4 0.0048,8.6e-4 0.0067,0 0.202163,-0.0908 0.407133,-0.18057 0.613791,-0.26686 0.0019,-8.6e-4 0.0048,8.5e-4 0.0067,0 0.623625,-0.26065 1.263276,-0.50276 1.928105,-0.72054 0.0019,-6.4e-4 0.0047,6.4e-4 0.0067,0 0.220397,-0.072 0.44222,-0.13972 0.667165,-0.20682 0.0021,-6.4e-4 0.0046,6.4e-4 0.0067,0 0.225008,-0.0671 0.450936,-0.13809 0.680507,-0.20015 0.0041,-0.001 0.0092,10e-4 0.01334,0 0.227622,-0.0614 0.461736,-0.12372 0.693851,-0.18013 0.0021,-4.3e-4 0.0046,4.2e-4 0.0067,0 0.234242,-0.0569 0.468365,-0.10845 0.707195,-0.16012 0.0021,-4.3e-4 0.0045,4.2e-4 0.0067,0 0.04888,-0.0106 0.0977,-0.023 0.146776,-0.0334 0.612461,-0.12911 1.238844,-0.23965 1.881403,-0.33358 0.06528,-0.01 0.127885,-0.0242 0.193478,-0.0334 0.0044,-6.4e-4 0.009,6.4e-4 0.01334,0 0.05499,-0.008 0.111589,-0.0126 0.166791,-0.02 0.689684,-0.0925 1.397549,-0.16307 2.121583,-0.21349 0.02022,-10e-4 0.0398,-0.005 0.06005,-0.007 0.0022,-1.5e-4 0.0044,1.5e-4 0.0067,0 0.26712,-0.0181 0.535463,-0.0345 0.807269,-0.0467 0.0022,-10e-5 0.0044,10e-5 0.0067,0 0.271893,-0.0121 0.550689,-0.0205 0.827284,-0.0267 0.0022,-5e-5 0.0044,5e-5 0.0067,0 0.0022,-5e-5 0.0045,5e-5 0.0067,0 0.274473,-0.006 0.548173,-0.007 0.827284,-0.007 l 21.976395,0 c 0.181174,0 0.355518,0.0163 0.52706,0.0534 0.169513,0.0366 0.337205,0.0914 0.493701,0.16012 0.02728,0.0121 0.05324,0.0271 0.08006,0.04 0.130316,0.0627 0.255472,0.13081 0.373612,0.2135 0.06914,0.0484 0.135775,0.10555 0.200149,0.16012 0.06563,0.0558 0.13328,0.11172 0.193478,0.17346 0.120397,0.12347 0.224351,0.25624 0.320239,0.4003 0.0017,0.002 0.005,0.004 0.0067,0.007 0.141488,0.21405 0.256283,0.4526 0.333582,0.70052 0.02542,0.0816 0.04912,0.16922 0.06672,0.25352 4.27e-4,0.002 -4.27e-4,0.005 0,0.007 0.03566,0.17288 0.05337,0.34594 0.05337,0.52706 l 0,45.49394 c -9e-6,0.002 4e-6,0.004 0,0.007 -4.27e-4,0.14425 0.004,0.28704 0.01334,0.42699 1.52e-4,0.002 -1.54e-4,0.004 0,0.007 8.54e-4,0.0136 0.0057,0.0265 0.0067,0.04 0.01849,0.24381 0.04687,0.47785 0.0934,0.70719 0.0045,0.0223 0.0086,0.0446 0.01334,0.0667 4.27e-4,0.002 -4.27e-4,0.005 0,0.007 0.02755,0.12792 0.06431,0.25751 0.100075,0.38028 0.03752,0.12879 0.08066,0.25085 0.126761,0.37362 6.41e-4,0.002 -6.4e-4,0.005 0,0.007 0.04479,0.11884 0.09436,0.23408 0.146776,0.34692 8.54e-4,0.002 -8.54e-4,0.005 0,0.007 0.160182,0.34377 0.3575,0.65903 0.580433,0.94071 0.07531,0.0952 0.151952,0.18618 0.233508,0.27353 0.24032,0.25739 0.50738,0.48385 0.793925,0.66717 0.192078,0.12326 0.392208,0.22733 0.600448,0.31356 0.104087,0.043 0.206083,0.0801 0.313568,0.11342 0.124588,0.0383 0.25298,0.0677 0.380283,0.0934 0.193303,0.0394 0.390041,0.0692 0.587105,0.0801 0.120833,0.006 0.24561,0.004 0.36694,0 0.44955,-0.0154 0.900493,-0.10264 1.334329,-0.2602 0.759212,-0.27573 1.465864,-0.75964 2.02818,-1.44775 0.0011,-10e-4 -0.0011,-0.005 0,-0.007 0.07914,-0.097 0.160422,-0.19531 0.233507,-0.30022 0.0011,-10e-4 -0.0011,-0.005 0,-0.007 l 0.0467,-0.0467 0,-0.007 c 0.780734,-1.27729 1.853763,-3.0126 3.129001,-5.07712 0.0013,-0.002 -0.0013,-0.005 0,-0.007 1.275861,-2.06552 2.76165,-4.45571 4.363247,-7.03858 9.615595,-15.50495 23.579195,-37.90323 23.610935,-37.95498 0.0425,-0.0607 0.0834,-0.11217 0.12677,-0.16679 10e-4,-10e-4 -0.001,-0.005 0,-0.007 0.0857,-0.10762 0.17866,-0.20193 0.26686,-0.28688 0.0893,-0.086 0.1763,-0.16242 0.26687,-0.22684 0.002,-0.002 0.004,-0.005 0.007,-0.007 0.0427,-0.0301 0.084,-0.0545 0.12676,-0.0801 0.0224,-0.0135 0.0443,-0.0278 0.0667,-0.04 0.0235,-0.0128 0.0499,-0.0285 0.0734,-0.04 0.002,-8.5e-4 0.005,8.5e-4 0.007,0 0.0433,-0.0211 0.0837,-0.0366 0.12677,-0.0534 0.003,-10e-4 0.004,-0.006 0.007,-0.007 0.0423,-0.0163 0.0849,-0.0277 0.12676,-0.04 0.13137,-0.0387 0.26212,-0.0633 0.38695,-0.0667 0.004,-1.4e-4 0.009,9e-5 0.0134,0 0.16674,-0.003 0.32784,0.0248 0.47368,0.0734 0.002,6.4e-4 0.005,-6.4e-4 0.007,0 0.0719,0.0243 0.14216,0.0548 0.2135,0.0934 0.002,8.5e-4 0.005,-8.5e-4 0.007,0 0.0716,0.0392 0.13811,0.0914 0.20682,0.14678 10e-4,10e-4 0.005,-10e-4 0.007,0 0.0678,0.055 0.13753,0.12094 0.20015,0.19347 10e-4,10e-4 -0.001,0.005 0,0.007 0.0312,0.0364 0.0639,0.0723 0.0934,0.11341 0.001,10e-4 -10e-4,0.005 0,0.007 0.0294,0.0413 0.0593,0.0806 0.0867,0.12677 8.6e-4,0.002 -8.5e-4,0.005 0,0.007 0.0274,0.0464 0.055,0.0952 0.0801,0.14677 8.6e-4,0.002 -8.5e-4,0.005 0,0.007 0.025,0.0518 0.051,0.103 0.0734,0.16012 6.4e-4,0.002 -6.4e-4,0.005 0,0.007 0.0223,0.0574 0.0473,0.11712 0.0667,0.18014 6.4e-4,0.002 -6.4e-4,0.005 0,0.007 0.0193,0.0633 0.0372,0.13102 0.0534,0.20015 4.3e-4,0.002 -4.3e-4,0.005 0,0.007 0.004,0.017 0.01,0.0361 0.0133,0.0534 0.011,0.053 0.0176,0.10374 0.0267,0.16012 0.0374,0.23319 0.0609,0.49805 0.0601,0.79393 l 0,45.82085 c -0.002,0.5855 0.0774,1.14027 0.22683,1.64789 0.002,0.005 0.005,0.009 0.007,0.0133 0.0366,0.12454 0.0754,0.24135 0.12009,0.36026 6.4e-4,0.002 -6.4e-4,0.005 0,0.007 0.0191,0.0505 0.0463,0.0973 0.0667,0.14677 0.0289,0.0695 0.0552,0.13943 0.0867,0.20682 0.0526,0.11279 0.10703,0.22046 0.16679,0.32691 8.5e-4,0.002 -8.5e-4,0.005 0,0.007 0.0599,0.10642 0.12681,0.20716 0.19348,0.3069 0.001,10e-4 -10e-4,0.005 0,0.007 0.0668,0.0997 0.14036,0.19423 0.21349,0.28688 0.001,0.001 -0.001,0.005 0,0.007 0.0733,0.0926 0.15432,0.18164 0.23351,0.26687 0.001,10e-4 -10e-4,0.006 0,0.007 0.0793,0.0852 0.16207,0.16275 0.24685,0.24018 0.0871,0.0795 0.17445,0.15582 0.26687,0.22683 0.36474,0.28025 0.77143,0.49414 1.20089,0.62714 0.10532,0.0325 0.21325,0.0633 0.32024,0.0867 0.1091,0.0238 0.22325,0.0389 0.33358,0.0534 0.33096,0.0433 0.66794,0.0455 1.00075,0.007 0.3329,-0.0385 0.65968,-0.11538 0.98073,-0.2335 0.10698,-0.0395 0.21559,-0.0853 0.32024,-0.13344 0.20936,-0.0961 0.41015,-0.20996 0.60712,-0.34025 0.19691,-0.1305 0.38663,-0.27639 0.56709,-0.44033 0.0914,-0.083 0.18043,-0.16874 0.26686,-0.26019 0.17071,-0.18039 0.33221,-0.37436 0.48036,-0.58711 l 0,-0.0467 0.0934,0 c 0.001,-0.002 0.005,-0.005 0.007,-0.007 0.78061,-1.27708 1.84783,-3.01381 3.12233,-5.07712 0.002,-0.003 0.005,-0.004 0.007,-0.007 1.27549,-2.06492 2.74898,-4.45681 4.34991,-7.03859 0.002,-0.003 0.005,-0.004 0.007,-0.007 9.61548,-15.50475 23.57915,-37.89656 23.61095,-37.94831 0,0 -1e-5,-0.007 0,-0.007 0.0411,-0.0584 0.085,-0.1073 0.12676,-0.16012 0.001,-10e-4 -0.001,-0.005 0,-0.007 0.0847,-0.10676 0.17337,-0.20217 0.26019,-0.28688 0.0879,-0.0858 0.17773,-0.16222 0.26687,-0.22683 0.1337,-0.0969 0.26663,-0.16668 0.4003,-0.22017 0.003,-0.001 0.004,-0.006 0.007,-0.007 0.0419,-0.0165 0.0851,-0.0275 0.12676,-0.04 0.1306,-0.0394 0.26068,-0.0629 0.38695,-0.0667 0.004,-1.4e-4 0.009,1.1e-4 0.0134,0 0.1688,-0.004 0.33287,0.0233 0.48703,0.0734 0.0798,0.0259 0.16224,0.0532 0.24018,0.0934 0.0746,0.0385 0.14281,0.0865 0.21349,0.1401 10e-4,10e-4 0.005,-10e-4 0.007,0 0.43169,0.32984 0.77083,0.96907 0.76724,2.1416 l 0,60.49179 -9.41369,0 0,-35.31968 c 0,0 -5.61758,9.59583 -15.2447,26.13283 -9.42733,16.194 -27.21938,9.49001 -27.22031,-4.44999 l 0,-21.68284 c 0,0 -5.51697,9.59583 -15.14463,26.13283 -3.866745,6.64031 -9.155563,9.43311 -14.037125,9.45372 z m -27.627277,-0.26686 c -52.4193556,-0.006 -51.9141488,-74.7111 0.713866,-74.7491 l 20.595364,0 c 8.849401,0 14.497409,5.24113 14.484139,14.91113 l 0,18.94079 c 0,0 11.561142,-19.11551 16.091982,-26.60651 7.69753,-12.727 26.3264,-10.22843 26.27961,5.67757 l 0,20.92894 c 0,0 11.51389,-19.11351 16.0453,-26.60651 7.69751,-12.727 26.3664,-10.22644 26.31963,5.67757 l 0,61.82612 -9.42036,0 0,-60.4918 0,-0.007 c 3.5e-4,-0.14266 -0.005,-0.28224 -0.0133,-0.42031 -1.4e-4,-0.002 1.4e-4,-0.004 0,-0.007 -0.009,-0.13794 -0.0223,-0.2739 -0.04,-0.40697 -2.8e-4,-0.002 2.8e-4,-0.005 0,-0.007 -0.0179,-0.13296 -0.0404,-0.26583 -0.0667,-0.39363 -4.2e-4,-0.002 4.3e-4,-0.005 0,-0.007 -0.0265,-0.12767 -0.0589,-0.25137 -0.0934,-0.37361 -5.8e-4,-0.002 5.8e-4,-0.005 0,-0.007 -0.0346,-0.12211 -0.0711,-0.2372 -0.11342,-0.3536 -7.2e-4,-0.002 7.3e-4,-0.005 0,-0.007 -0.0424,-0.11634 -0.0904,-0.22991 -0.1401,-0.34026 -8.3e-4,-0.002 8.3e-4,-0.005 0,-0.007 -0.30133,-0.67179 -0.73591,-1.22881 -1.26094,-1.64122 -0.001,-10e-4 -0.005,10e-4 -0.007,0 -0.17375,-0.13608 -0.35477,-0.25701 -0.54708,-0.36027 -0.002,-8.5e-4 -0.005,8.5e-4 -0.007,0 -0.19229,-0.10286 -0.39256,-0.19232 -0.60045,-0.26019 -0.002,-6.4e-4 -0.005,6.4e-4 -0.007,0 -0.13986,-0.0454 -0.28427,-0.0849 -0.42698,-0.11342 -0.15652,-0.0313 -0.3152,-0.0487 -0.47369,-0.0601 -0.12612,-0.009 -0.25379,-0.0168 -0.38029,-0.0133 -0.11321,0.003 -0.22732,0.0135 -0.34025,0.0267 -0.10623,0.0121 -0.20806,0.026 -0.31357,0.0467 -0.002,4.3e-4 -0.005,-4.3e-4 -0.007,0 -0.10557,0.0209 -0.20919,0.0507 -0.31357,0.0801 -0.002,6.4e-4 -0.005,-6.4e-4 -0.007,0 -0.10239,0.0289 -0.2061,0.0631 -0.30689,0.10007 -0.10683,0.0392 -0.20904,0.0853 -0.31357,0.13344 -0.002,8.5e-4 -0.005,-8.6e-4 -0.007,0 -0.10069,0.0465 -0.20215,0.0988 -0.30023,0.15344 -0.002,8.6e-4 -0.005,-8.5e-4 -0.007,0 -0.0981,0.0549 -0.19186,0.11721 -0.28688,0.18014 -0.002,10e-4 -0.005,-10e-4 -0.007,0 -0.095,0.0631 -0.18874,0.12907 -0.28021,0.20015 -0.001,10e-4 -0.005,-10e-4 -0.007,0 -0.18449,0.14371 -0.35336,0.31159 -0.52039,0.48703 -0.16924,0.17776 -0.333,0.36439 -0.48036,0.57376 l -0.04,0 -0.0133,0 0,0.10007 c 0,0 -1.54867,2.48486 -3.96963,6.35808 -0.001,0.002 -0.005,0.005 -0.007,0.007 -7.27822,11.64422 -22.42892,35.89824 -27.1736,43.65924 -0.004,0.005 -0.002,0.007 -0.007,0.007 -0.004,-0.002 -0.009,-0.005 -0.0133,-0.007 -0.002,-10e-4 -0.005,10e-4 -0.007,0 -0.002,-2.2e-4 -0.005,-8.6e-4 -0.007,0 -0.004,-6.4e-4 -0.01,-0.005 -0.0133,0 -0.006,0 0.006,0.0534 0,0.0534 -0.20258,0.26983 -0.41899,0.47955 -0.64715,0.62714 -0.002,10e-4 -0.005,-0.001 -0.007,0 -0.36527,0.235 -0.75099,0.32394 -1.11417,0.30022 -0.007,-4.3e-4 -0.0135,4.3e-4 -0.02,0 -0.0413,-0.003 -0.0861,-0.014 -0.12676,-0.02 -0.0897,-0.0133 -0.17456,-0.0335 -0.2602,-0.06 -0.0857,-0.027 -0.17016,-0.054 -0.25352,-0.0934 -0.003,-10e-4 -0.004,-0.005 -0.007,-0.007 -0.0403,-0.0193 -0.0808,-0.0375 -0.12009,-0.0601 -0.12921,-0.0716 -0.24674,-0.16285 -0.36027,-0.27354 -0.36859,-0.3671 -0.62995,-0.96623 -0.62713,-1.9281 l 0,-45.82085 c 0.004,-1.00828 -0.22206,-1.92453 -0.6138,-2.682 -8.5e-4,-0.002 8.6e-4,-0.005 0,-0.007 -0.0549,-0.10695 -0.1187,-0.20641 -0.18013,-0.3069 -10e-4,-0.002 0.001,-0.005 0,-0.007 -0.12581,-0.20337 -0.26312,-0.39267 -0.41364,-0.56709 -0.0748,-0.0876 -0.15301,-0.16708 -0.23351,-0.24685 -0.0285,-0.028 -0.0576,-0.053 -0.0867,-0.0801 -0.13617,-0.12718 -0.2768,-0.24965 -0.42699,-0.3536 -0.18233,-0.12526 -0.38038,-0.23155 -0.58043,-0.32024 -0.0981,-0.0434 -0.19826,-0.0861 -0.30022,-0.12008 -0.10393,-0.0347 -0.21466,-0.062 -0.32024,-0.0867 -0.10361,-0.024 -0.20874,-0.0455 -0.31357,-0.06 -0.21396,-0.0296 -0.43105,-0.0421 -0.64715,-0.0334 -0.10805,0.004 -0.21239,0.013 -0.32024,0.0267 -0.21568,0.0273 -0.42859,0.0767 -0.64048,0.1401 -0.10395,0.0311 -0.21124,0.0672 -0.31356,0.10675 -0.002,6.4e-4 -0.005,-6.4e-4 -0.007,0 -0.10234,0.0397 -0.19999,0.0854 -0.30023,0.13343 -0.002,8.6e-4 -0.005,-8.5e-4 -0.007,0 -0.10029,0.0482 -0.19585,0.1038 -0.29355,0.16012 -0.001,8.5e-4 -0.005,-8.5e-4 -0.007,0 -0.0978,0.0565 -0.1922,0.12233 -0.28688,0.18681 -0.002,10e-4 -0.005,-10e-4 -0.007,0 -0.19101,0.1304 -0.37153,0.2786 -0.54708,0.44033 -0.001,10e-4 -0.006,-10e-4 -0.007,0 -0.0872,0.0805 -0.17089,0.16558 -0.25352,0.25352 -0.16856,0.1794 -0.33372,0.37106 -0.48036,0.58043 l 0,0.0467 -0.0334,0 c 0,0 -24.814806,39.73883 -31.13654,50.07736 -0.0036,0.005 -0.0098,0.008 -0.01334,0.0133 -0.06465,0.0924 -0.132034,0.17469 -0.200149,0.25353 -0.01874,0.0215 -0.03441,0.0462 -0.05337,0.0667 -0.0417,0.0455 -0.08405,0.086 -0.126762,0.12676 -0.0024,0.002 -0.0043,0.004 -0.0067,0.007 -0.04148,0.0393 -0.08446,0.0785 -0.126761,0.11342 -0.0038,0.003 -0.0095,0.004 -0.01334,0.007 -0.04214,0.0344 -0.08395,0.0699 -0.126761,0.10008 -0.0042,0.003 -0.0091,0.004 -0.01334,0.007 -0.04254,0.0296 -0.0837,0.0545 -0.126761,0.0801 -0.0042,0.002 -0.0091,0.004 -0.01334,0.007 -0.007,0.004 -0.01296,0.009 -0.02,0.0133 -0.03919,0.022 -0.08061,0.048 -0.12009,0.0667 -0.04335,0.0208 -0.08984,0.0364 -0.133433,0.0534 -0.0046,0.002 -0.0087,0.005 -0.01334,0.007 -0.04352,0.0165 -0.08981,0.0272 -0.133433,0.04 -0.0046,10e-4 -0.0087,0.005 -0.01334,0.007 -0.04607,0.0132 -0.08739,0.0241 -0.133433,0.0334 -0.0022,4.3e-4 -0.0044,-4.2e-4 -0.0067,0 -0.0089,0.002 -0.01783,0.005 -0.02669,0.007 -0.27747,0.0494 -0.551124,0.0258 -0.807269,-0.0534 -0.133407,-0.0411 -0.267425,-0.0958 -0.393627,-0.16679 -0.0017,-0.001 -0.0049,10e-4 -0.0067,0 -0.250493,-0.142 -0.474438,-0.35494 -0.647149,-0.66049 -0.0015,-0.003 -0.0051,-0.004 -0.0067,-0.007 -0.05619,-0.10048 -0.103587,-0.21132 -0.146776,-0.33359 -0.110745,-0.3135 -0.174863,-0.69963 -0.173463,-1.18088 l 0,-0.0534 0,-45.50061 c 0,-0.52 -0.08386,-1.01838 -0.233507,-1.49445 -0.09839,-0.313 -0.225848,-0.61567 -0.380284,-0.90067 -0.0015,-0.003 -0.0053,-0.004 -0.0067,-0.007 -0.03761,-0.0691 -0.07276,-0.13963 -0.113418,-0.20682 -0.0015,-0.003 -0.0051,-0.004 -0.0067,-0.007 -0.210982,-0.34732 -0.462822,-0.66658 -0.747224,-0.95405 -0.05692,-0.0576 -0.113913,-0.11193 -0.173463,-0.16679 -0.11823,-0.1088 -0.239041,-0.21623 -0.36694,-0.31357 -0.0013,-10e-4 -0.0053,10e-4 -0.0067,0 -0.06324,-0.048 -0.128036,-0.10171 -0.193478,-0.14677 -0.133785,-0.0921 -0.271306,-0.17447 -0.413642,-0.25353 -0.07107,-0.0394 -0.147111,-0.0774 -0.220164,-0.11341 -0.510546,-0.25119 -1.069442,-0.41882 -1.654568,-0.48036 -0.08388,-0.009 -0.16855,-0.0155 -0.253522,-0.02 -0.08278,-0.004 -0.169791,-0.007 -0.253523,-0.007 l -21.969722,0 c -0.0022,0 -0.0044,0 -0.0067,0 -0.600201,0 -1.192591,0.0134 -1.774658,0.04 -0.0022,1e-4 -0.0044,-10e-5 -0.0067,0 -0.581925,0.0267 -1.150883,0.0676 -1.714612,0.12009 -0.0022,2.1e-4 -0.0045,-2e-4 -0.0067,0 -0.280721,0.0262 -0.564432,0.0543 -0.840627,0.0867 -0.0022,2.2e-4 -0.0045,-2.1e-4 -0.0067,0 -0.276121,0.0325 -0.549024,0.0682 -0.820612,0.10675 -0.0022,2.1e-4 -0.0045,-2.1e-4 -0.0067,0 -0.271533,0.0386 -0.540277,0.0821 -0.807269,0.12676 -0.0022,4.3e-4 -0.0045,-4.3e-4 -0.0067,0 -0.536033,0.0898 -1.063507,0.19347 -1.58118,0.3069 -0.0021,4.2e-4 -0.0045,-4.3e-4 -0.0067,0 -0.257711,0.0565 -0.50742,0.1179 -0.760567,0.18013 -0.0021,4.3e-4 -0.0046,-4.3e-4 -0.0067,0 -0.25311,0.0623 -0.505358,0.12559 -0.753896,0.19348 -0.0021,6.4e-4 -0.0046,-6.4e-4 -0.0067,0 -0.248494,0.0679 -0.496639,0.14006 -0.740552,0.21349 -0.0021,6.4e-4 -0.0046,-6.4e-4 -0.0067,0 -0.24386,0.0735 -0.481266,0.15464 -0.720538,0.23351 -0.0019,6.4e-4 -0.0047,-6.4e-4 -0.0067,0 -0.239239,0.0789 -0.479222,0.16264 -0.713866,0.24685 -0.0019,6.4e-4 -0.0047,-6.4e-4 -0.0067,0 -0.234583,0.0842 -0.463872,0.17076 -0.69385,0.26019 -0.0019,8.6e-4 -0.0047,-8.5e-4 -0.0067,0 -0.229951,0.0895 -0.455171,0.18565 -0.680508,0.28021 -0.0019,8.6e-4 -0.0048,-8.5e-4 -0.0067,0 -0.09694,0.0407 -0.190792,0.0851 -0.286881,0.12676 -0.129594,0.0561 -0.258919,0.10907 -0.386955,0.16679 -0.22064,0.0996 -0.437812,0.2024 -0.653821,0.3069 -0.0017,8.5e-4 -0.0049,-8.5e-4 -0.0067,0 -0.107543,0.0521 -0.213845,0.10687 -0.320239,0.16012 -0.109526,0.0547 -0.218606,0.11081 -0.326911,0.16679 -0.211304,0.10936 -0.420478,0.21955 -0.627134,0.33358 -0.0017,8.6e-4 -0.005,-8.5e-4 -0.0067,0 -0.07472,0.0412 -0.146055,0.0849 -0.220164,0.12676 -0.337724,0.19043 -0.669018,0.38445 -0.994075,0.58711 -0.0026,0.002 -0.0041,0.005 -0.0067,0.007 -0.196234,0.12255 -0.388826,0.24674 -0.580433,0.37361 -0.0026,0.002 -0.0041,0.005 -0.0067,0.007 -0.385549,0.25528 -0.767444,0.51507 -1.13418,0.78726 -0.0025,0.002 -0.0042,0.005 -0.0067,0.007 -0.182072,0.1353 -0.36298,0.27434 -0.540403,0.41364 -0.0025,0.002 -0.0042,0.005 -0.0067,0.007 -0.17731,0.13932 -0.347732,0.2771 -0.520388,0.42031 -0.0024,0.002 -0.0042,0.005 -0.0067,0.007 -0.522459,0.43362 -1.028187,0.88669 -1.507791,1.35434 -0.0023,0.002 -0.0044,0.004 -0.0067,0.007 -0.158339,0.15445 -0.313363,0.30908 -0.467015,0.46702 -0.0022,0.002 -0.0045,0.004 -0.0067,0.007 -0.153589,0.15798 -0.304778,0.31899 -0.453672,0.48035 -0.0021,0.002 -0.0045,0.004 -0.0067,0.007 -0.01595,0.0173 -0.0308,0.036 -0.0467,0.0534 -0.135525,0.14794 -0.268661,0.29639 -0.400298,0.447 -0.142974,0.16338 -0.281909,0.32727 -0.420314,0.4937 -0.0031,0.004 -0.0036,0.01 -0.0067,0.0133 -0.138296,0.16649 -0.27991,0.33094 -0.413642,0.50038 -0.003,0.004 -0.0037,0.01 -0.0067,0.0133 -0.134677,0.17083 -0.263582,0.34 -0.393627,0.51372 -0.0019,0.002 -0.0048,0.004 -0.0067,0.007 -0.129991,0.17377 -0.254923,0.35049 -0.380283,0.52706 -0.0017,0.003 -0.0049,0.004 -0.0067,0.007 -0.03796,0.0535 -0.07589,0.10637 -0.113418,0.16012 -0.0876,0.12557 -0.174917,0.25337 -0.260194,0.38028 -0.119582,0.17782 -0.238563,0.36005 -0.353597,0.5404 -0.0026,0.004 -0.004,0.009 -0.0067,0.0133 -0.115914,0.18195 -0.228965,0.36264 -0.340254,0.54707 -0.0015,0.003 -0.0051,0.004 -0.0067,0.007 -0.111245,0.18451 -0.220288,0.37354 -0.326911,0.56042 -0.0015,0.003 -0.0052,0.004 -0.0067,0.007 -0.08782,0.15405 -0.168842,0.31142 -0.253522,0.46702 -0.01964,0.0361 -0.04058,0.0705 -0.06004,0.10674 -0.100961,0.18753 -0.203798,0.37743 -0.300224,0.56709 -0.0013,0.003 -0.0053,0.004 -0.0067,0.007 -0.09813,0.19317 -0.18678,0.38516 -0.280209,0.58044 -0.0013,0.003 -0.0054,0.004 -0.0067,0.007 -0.09255,0.19359 -0.178934,0.39154 -0.266866,0.5871 -0.0013,0.003 -0.0055,0.004 -0.0067,0.007 -0.08704,0.19376 -0.171001,0.39152 -0.253522,0.58711 -0.0019,0.005 -0.0048,0.009 -0.0067,0.0133 -0.0832,0.19751 -0.161584,0.39451 -0.240179,0.59378 -0.0011,0.003 -0.0056,0.004 -0.0067,0.007 -0.07855,0.19932 -0.152899,0.39946 -0.226836,0.60045 -0.0011,0.003 -0.0057,0.004 -0.0067,0.007 -0.07389,0.20105 -0.137538,0.40451 -0.206821,0.60712 -8.54e-4,0.003 -0.0058,0.004 -0.0067,0.007 -0.06923,0.20266 -0.135519,0.40967 -0.200149,0.61379 -0.195809,0.61844 -0.366791,1.24477 -0.520389,1.87473 -0.0011,0.005 -0.0055,0.009 -0.0067,0.0133 -0.05011,0.20597 -0.0945,0.41345 -0.140105,0.62046 -0.0011,0.005 -0.0057,0.009 -0.0067,0.0133 -0.465412,2.11748 -0.698087,4.28429 -0.693851,6.45148 0.0133,6.934 2.38483,13.9293 7.098629,19.17431 2.504196,2.78587 5.676055,5.0602 9.467062,6.58491 0.0019,8.5e-4 0.0048,-8.6e-4 0.0067,0 0.447989,0.18006 0.902376,0.34839 1.367687,0.50704 1.154338,0.3936 2.363208,0.72743 3.622703,0.98073 0.762453,0.15335 1.541365,0.27528 2.341747,0.37362 0.526317,0.0647 1.058641,0.12021 1.601194,0.16012 0.820576,0.0603 1.664538,0.0919 2.521882,0.0934 l 13.349959,0 0.0067,0 0,9.46706 -11.68872,0 -0.0067,0 z"
           style="fill:#ffffff;fill-opacity:1;fill-rule:nonzero;stroke:none" />
      </g>
    </g>
  </g>
</svg>
